<svg id="Layer_1" data-name="Layer 1" xmlns="http://www.w3.org/2000/svg" viewBox="0 0 81 28.9"><defs><style>.cls-1{fill:#3f3f3f;}.cls-2{fill:#ccc;}.cls-3{fill:#f90;}.cls-4{fill:#fc0;}.cls-5{fill:#333;}</style></defs><path class="cls-1" d="M85.6,13.5l1.4-.4a.37.37,0,0,1,.3.1.19.19,0,0,1,0,.3l-.7,1.2.8-.2c.1,0,.3,0,.3.2s0,.3-.2.3l-1.4.4h-.2a.19.19,0,0,1,0-.3l.7-1.2-.7.2c-.1,0-.3,0-.3-.2v-.1C85.4,13.6,85.5,13.5,85.6,13.5Z" transform="translate(-6.7 -7.8)"/><path class="cls-1" d="M85.1,13.9l-.9,1.7,1.2-.3a.37.37,0,0,1,.3.1l.1.1c0,.1,0,.3-.2.3l-1.8.5h-.2a.1.1,0,0,1-.1-.1.19.19,0,0,1,0-.3l1-1.7-1.1.3c-.1,0-.3,0-.3-.2v-.1c0-.1.1-.2.2-.3l1.8-.5a.37.37,0,0,1,.3.1.35.35,0,0,1,.1.2C85.1,13.8,85.1,13.9,85.1,13.9Z" transform="translate(-6.7 -7.8)"/><path class="cls-1" d="M81.1,16.8l1.6-.5h.2l.1.1c0,.1,0,.3-.2.3l-2.3.7a.37.37,0,0,1-.3-.1c.1,0,.1-.1.1-.2l1.3-2.3-1.6.4c-.1,0-.3,0-.3-.2s0-.3.2-.3l2.3-.7a.37.37,0,0,1,.3.1.35.35,0,0,1,.1.2v.1Z" transform="translate(-6.7 -7.8)"/><path class="cls-2" d="M71.7,24h.5a3.78,3.78,0,0,0,1.7,1.6,2.66,2.66,0,0,0,1.2.3h.4a2.66,2.66,0,0,0,1.2-.3A3.75,3.75,0,0,0,78.4,24h.5v1.3a1.28,1.28,0,0,1-.4,1l1.4.6h1.2a.47.47,0,0,1,.5.5h0a.47.47,0,0,1-.5.5h-.5v.3l-1.5,7.5a1.27,1.27,0,0,1-1.2,1h-.3a1.27,1.27,0,0,1-1-1.5l1.3-6.5-1.7-.8H74.4l-1.7.8L74,35.2a1.27,1.27,0,0,1-1,1.5h-.3a1.19,1.19,0,0,1-1.2-1L70,28.2v-.3h-.5a.47.47,0,0,1-.5-.5h0a.47.47,0,0,1,.5-.5h1.2l1.4-.6a1.78,1.78,0,0,1-.4-1V24Z" transform="translate(-6.7 -7.8)"/><path class="cls-2" d="M77.9,22.1l-.4.4-.9-.3a1.38,1.38,0,0,0-1.3-.6,1.61,1.61,0,0,0-1.3.6l-.9.2-.4-.4a2.68,2.68,0,0,1,2.6-2.3A2.87,2.87,0,0,1,77.9,22.1Z" transform="translate(-6.7 -7.8)"/><path class="cls-2" d="M78,15.5a2.66,2.66,0,0,1-.3,1.2,2.56,2.56,0,0,1-2.4,1.5,2.79,2.79,0,0,1-2.4-1.5,2.38,2.38,0,0,1-.3-1.2,2.7,2.7,0,0,1,5.4,0Z" transform="translate(-6.7 -7.8)"/><path class="cls-2" d="M77.6,23.6A2.63,2.63,0,0,1,75.5,25V23.6a1.23,1.23,0,0,0,1.1-.8l.7.2Z" transform="translate(-6.7 -7.8)"/><path d="M73.9,22.8l-.7.2h0c0-.2-.1-.3-.1-.5l.9-.2a1.38,1.38,0,0,1,1.3-.6,1.61,1.61,0,0,1,1.3.6l.9.2a.75.75,0,0,0-.1.5h0l-.7-.2a1.37,1.37,0,0,1-1.1.8V25a2.63,2.63,0,0,0,2.1-1.4.91.91,0,0,0,.7.3,3.78,3.78,0,0,1-1.7,1.6,2.66,2.66,0,0,1-1.2.3h-.4a2.66,2.66,0,0,1-1.2-.3,3.75,3.75,0,0,1-1.7-1.6.91.91,0,0,0,.7-.3A2.63,2.63,0,0,0,75,25V23.6A1.37,1.37,0,0,1,73.9,22.8Z" transform="translate(-6.7 -7.8)"/><path class="cls-2" d="M75.3,18.4A3,3,0,0,0,78,16.7a1.33,1.33,0,0,1,.6.5l2.9,5.4a.91.91,0,0,1,0,1,1,1,0,0,1-.8.5H78.5a.91.91,0,0,1-.7-.3l-.3-.7h0c0-.2.1-.3.1-.5l.4-.4a.75.75,0,0,1,.5-.1h.3a1.45,1.45,0,0,0-.2-.7l-.4-.8a3.45,3.45,0,0,0-2.7-1.4v-.8Z" transform="translate(-6.7 -7.8)"/><path class="cls-2" d="M75,23.6V25a2.63,2.63,0,0,1-2.1-1.4l.2-.6.7-.2A1.74,1.74,0,0,0,75,23.6Z" transform="translate(-6.7 -7.8)"/><path d="M77.9,22.1a2.68,2.68,0,0,0-2.6-2.3,2.6,2.6,0,0,0-2.6,2.3.75.75,0,0,0-.5-.1h-.3a1.88,1.88,0,0,1,.2-.8l.4-.7A3.32,3.32,0,0,1,75.3,19,3.45,3.45,0,0,1,78,20.4l.4.8c.1.2.1.5.2.7h-.3C78.2,22,78,22,77.9,22.1Z" transform="translate(-6.7 -7.8)"/><path class="cls-2" d="M72.88,23.8a.91.91,0,0,1-.7.3H70a.89.89,0,0,1-.8-.5.91.91,0,0,1,0-1l2.9-5.4a1,1,0,0,1,.6-.5,3,3,0,0,0,2.7,1.7V19a3.32,3.32,0,0,0-2.8,1.5l-.5.9a2.35,2.35,0,0,0-.2.8h.3a.9.9,0,0,1,.5.1l.4.4a.75.75,0,0,1,.1.5h0Z" transform="translate(-6.7 -7.8)"/><path class="cls-2" d="M42,30.2l-.3.8.8-.2a2,2,0,0,1,.4,1.5,1.91,1.91,0,0,1-1.6,1.6L39,32.3v-.7A2,2,0,0,1,41.3,30,1.85,1.85,0,0,1,42,30.2Z" transform="translate(-6.7 -7.8)"/><path class="cls-2" d="M38,29.5l.7,2.9,2.8,2a.78.78,0,0,1,.2,1,.71.71,0,0,1-.6.3.6.6,0,0,1-.4-.1l-3-2.1a1.38,1.38,0,0,1-.3-.4l-.8-3.2a.73.73,0,0,1,1.4-.4Z" transform="translate(-6.7 -7.8)"/><path class="cls-2" d="M34.2,27.4l.5,1,.4-.9a4.62,4.62,0,0,1,2.2.3A2.19,2.19,0,0,1,39,30a1.16,1.16,0,0,1-.5.7l-.3-1.2a1,1,0,0,0-.9-.7h-.2a.92.92,0,0,0-.7,1.1l.7,2.9L36.2,35a1.2,1.2,0,0,1-1,.7.6.6,0,0,1-.4-.1,1.07,1.07,0,0,1-.6-1.5L35,32l-1.5-.7.5,2.3a1,1,0,0,1-.2.9,1.13,1.13,0,0,1-.8.5l-3.8.5H29a1.09,1.09,0,0,1-1.1-1,1.13,1.13,0,0,1,1-1.3l.6-.1.2.6L30,33l1.5-.2-.1-.6.7-.3-.9.1-.3-1.6c0-.2-.1-.3-.1-.6a1.79,1.79,0,0,1,1.5-2.2A13.66,13.66,0,0,1,34.2,27.4Z" transform="translate(-6.7 -7.8)"/><polygon class="cls-3" points="19.3 19.2 19.1 19.8 18.3 19.5 18.8 18.8 19.3 19.2"/><polygon class="cls-3" points="19.6 16.1 18.8 16.7 18.8 18.2 18.2 17.3 17.1 17.1 17.9 16.5 18.1 15.3 18.5 16.2 19.6 16.1"/><polygon class="cls-3" points="17.8 20.1 16.8 20.7 16.1 19.2 17.8 19 17.8 20.1"/><path class="cls-4" d="M21.1,20.6a1.43,1.43,0,0,0,1.7-.7A1.25,1.25,0,0,1,21.1,20.6Z" transform="translate(-6.7 -7.8)"/><path class="cls-4" d="M20.4,18.9a1.3,1.3,0,0,1,2.4,1,1.43,1.43,0,0,1-1.7.7A1.25,1.25,0,0,1,20.4,18.9Z" transform="translate(-6.7 -7.8)"/><path class="cls-4" d="M16.7,31.1a1.3,1.3,0,1,1-1.7.7A1.48,1.48,0,0,1,16.7,31.1Z" transform="translate(-6.7 -7.8)"/><path class="cls-5" d="M15,10a1.11,1.11,0,0,1,0-2.2A1.1,1.1,0,1,1,15,10Z" transform="translate(-6.7 -7.8)"/><path class="cls-5" d="M20.9,26l-.5-2.5-.6-.2.7,2.6Zm.2-5.4a1.3,1.3,0,1,0-.7-1.7A1.25,1.25,0,0,0,21.1,20.6Zm-3,8.3.2-2.5-.5-.4-.1,2.7Zm3.8-1.8a51,51,0,0,1-3.5,6.4l5,.2c.6-1,2.3-3.8,2.8-4.9s1.2-4.2,1.5-5.3L24,20.1A61.77,61.77,0,0,1,21.9,27.1Zm-3.1-3.3.3,4.9.6-.3L19,22.8Zm-3.1,9.7a1.3,1.3,0,1,0-.7-1.7A1.25,1.25,0,0,0,15.7,33.5Zm-2.6.7,7.6-18.3,3.6,1.5a4.53,4.53,0,0,1-.1.8L29.3,23s-1.2,5-1.8,6.5-3.3,5.8-3.3,5.8l-7-.2a6.12,6.12,0,0,1-.5.6Z" transform="translate(-6.7 -7.8)"/><path class="cls-5" d="M20.3,15.7,12.7,34l-1.4-.6.3-.7-2.1-.9a.73.73,0,0,1-.4-1l.6-1.4a.73.73,0,0,1,1-.4l2.1.9,4.7-11.3-2.1-.9a.73.73,0,0,1-.4-1l.6-1.4a.73.73,0,0,1,1-.4l2.1.9.3-.7Z" transform="translate(-6.7 -7.8)"/><circle class="cls-5" cx="6.6" cy="15.5" r="0.8"/><polygon class="cls-3" points="5.2 27.6 5.7 26.9 6.2 27.3 6 27.9 5.2 27.6"/><circle class="cls-5" cx="4.6" cy="14.3" r="1.1"/><path class="cls-5" d="M12.8,8.5a.77.77,0,0,1-.7.8.79.79,0,0,1-.8-.8.86.86,0,0,1,.8-.7A.68.68,0,0,1,12.8,8.5Z" transform="translate(-6.7 -7.8)"/><path class="cls-5" d="M11.3,17.8a1.59,1.59,0,0,1-1.2,1.5h.1a1.43,1.43,0,0,0,1.2-.6,1.15,1.15,0,0,1,.6.9,1.1,1.1,0,1,1-2.2,0v-.3a1.54,1.54,0,0,1-1.5-1.5,1.59,1.59,0,0,1,1.2-1.5,6.89,6.89,0,0,1-.3-.8,2,2,0,0,0,1.4-1.4.35.35,0,0,1-.1-.2,1.83,1.83,0,0,1-1.8,1.4A2,2,0,0,1,7,14.4a1.69,1.69,0,0,1-.3-1,1.94,1.94,0,0,1,1-1.7,1.7,1.7,0,0,0,1.6.9h.2a1.86,1.86,0,0,1-1.7-1.9A1.71,1.71,0,0,1,9.6,9h.2a1.94,1.94,0,0,1,1.7,1,2,2,0,0,1,1.1-.2,2.61,2.61,0,0,1,2,1,1.15,1.15,0,0,0-.6.9,1.3,1.3,0,0,1,1.2-.8c.6-.1,1.2.5,1.2,1.3v.2a1.3,1.3,0,0,1-1.3,1.1h-.3A2.54,2.54,0,0,1,13,14.9v.4a1.83,1.83,0,0,1-1.4,1.8.76.76,0,0,0-.4.1A1.27,1.27,0,0,1,11.3,17.8Z" transform="translate(-6.7 -7.8)"/><polygon class="cls-3" points="4.3 26.3 4.4 27.4 3.4 28 2.7 26.6 4.3 26.3"/><polygon class="cls-3" points="1.6 24.9 2 25.4 1.9 26 1 25.6 1.6 24.9"/></svg>